<?xml version="1.0" encoding="utf-8"?>
<!-- Generator: Adobe Illustrator 26.1.0, SVG Export Plug-In . SVG Version: 6.00 Build 0)  -->
<svg version="1.1" xmlns="http://www.w3.org/2000/svg" xmlns:xlink="http://www.w3.org/1999/xlink" x="0px" y="0px"
	 viewBox="0 0 891.24 501.32" style="enable-background:new 0 0 891.24 501.32;" xml:space="preserve">
<style type="text/css">
	.st0{display:none;}
	.st1{display:inline;fill:#E7E7E7;}
	.st2{fill:#FFFFFF;}
</style>
<g id="Camada_2" class="st0">
	<rect x="-23.72" y="-23.06" class="st1" width="937.36" height="551.55"/>
</g>
<g id="Camada_1">
	<g>
		<g>
			<path class="st2" d="M351.57,223.27c0,0,109.77-126.91,110.01-127.17c-1.09-0.12-2.18-0.18-3.28-0.18
				c-8.09,0-16.3,3.26-22.47,10.39L334.68,223.27H351.57z"/>
			<polygon class="st2" points="308.61,253.5 308.61,272.94 325.43,253.5 			"/>
			<polygon class="st2" points="356.29,297.09 462.48,174.75 462.48,174.75 484.46,149.42 481.58,129.83 459.61,155.24 
				459.61,155.24 340.84,292.59 			"/>
			<path class="st2" d="M544.91,369.02c-0.47,0.63-0.96,1.25-1.48,1.85c-6.13,7.09-14.94,11.16-24.19,11.16
				c-2.53,0-5.07-0.31-7.58-0.92c-0.49-0.12-0.99-0.25-1.48-0.39l-187.56-54.67c-0.42-0.12-0.84-0.26-1.26-0.4
				c-0.15-0.05-0.3-0.11-0.44-0.16c-0.26-0.09-0.53-0.19-0.79-0.29c-0.18-0.07-0.36-0.14-0.54-0.21c-0.22-0.09-0.44-0.18-0.66-0.27
				c-0.2-0.09-0.4-0.17-0.59-0.26c-0.19-0.08-0.37-0.17-0.56-0.26c-0.22-0.1-0.43-0.21-0.65-0.32c-0.15-0.08-0.3-0.16-0.45-0.23
				c-0.24-0.13-0.48-0.25-0.71-0.38c-0.1-0.06-0.21-0.12-0.31-0.18c-3.41-1.95-6.42-4.51-8.88-7.53c-0.01,0-0.01-0.01-0.02-0.01
				c-0.53-0.65-1.04-1.33-1.52-2.02c-1.42,3.15-2.22,6.53-2.4,9.97c0,0.07-0.01,0.14-0.01,0.21c-0.01,0.29-0.02,0.58-0.02,0.87
				c0,0.15,0,0.3,0,0.45c0,0.22,0,0.44,0.01,0.66c0.01,0.24,0.02,0.47,0.03,0.71c0.01,0.14,0.01,0.27,0.02,0.41
				c0.02,0.34,0.05,0.68,0.09,1.03c0,0.04,0.01,0.07,0.01,0.11c0.18,1.66,0.5,3.31,0.98,4.94c0.15,0.52,0.33,1.04,0.51,1.55
				l0.02,0.01c3.02,8.36,9.8,14.75,18.41,17.27l187.56,54.67c2.6,0.76,5.26,1.14,7.9,1.14c8.04,0,15.72-3.55,21.06-9.73
				c5.35-6.19,7.64-14.09,6.44-22.24L544.91,369.02z"/>
			<path class="st2" d="M307.53,309.42L307.53,309.42C307.53,309.42,307.54,309.42,307.53,309.42c0.16,0.28,0.33,0.54,0.5,0.81
				c0.1,0.16,0.2,0.32,0.3,0.48c0.17,0.26,0.34,0.51,0.52,0.76c0.11,0.16,0.23,0.31,0.34,0.47c0.61,0.82,1.26,1.61,1.95,2.35
				c0.16,0.17,0.31,0.34,0.48,0.5c0.19,0.19,0.38,0.38,0.57,0.57c0.18,0.18,0.37,0.35,0.56,0.52c0.18,0.17,0.37,0.34,0.55,0.5
				c0.35,0.3,0.71,0.6,1.08,0.89c0.15,0.12,0.31,0.23,0.47,0.35c0.26,0.2,0.52,0.39,0.79,0.58c0.18,0.12,0.35,0.24,0.53,0.36
				c0.27,0.18,0.55,0.36,0.84,0.53c0.16,0.1,0.32,0.2,0.48,0.29c0.44,0.25,0.88,0.5,1.33,0.73c0.08,0.04,0.16,0.08,0.25,0.12
				c0.05,0.02,0.09,0.04,0.14,0.07c0.05,0.02,0.1,0.05,0.15,0.07c0.3,0.15,0.6,0.29,0.9,0.42c0.16,0.07,0.32,0.14,0.47,0.2
				c0.22,0.09,0.44,0.18,0.66,0.27c0.15,0.06,0.29,0.11,0.44,0.16c0.14,0.05,0.28,0.11,0.42,0.16c0.1,0.04,0.2,0.07,0.31,0.11
				c0.4,0.14,0.81,0.27,1.22,0.39l187.56,54.67c0.64,0.19,1.29,0.35,1.94,0.49c0.64,0.14,1.29,0.26,1.94,0.35c0.01,0,0.01,0,0.02,0
				l0,0c1.33,0.19,2.67,0.29,4,0.29c8.04,0,15.72-3.55,21.06-9.73c0.36-0.41,0.7-0.83,1.03-1.26c0.05-0.07,0.1-0.14,0.15-0.2
				c0.28-0.37,0.56-0.75,0.82-1.14c0.03-0.04,0.05-0.08,0.07-0.11c0.29-0.42,0.56-0.85,0.82-1.29c0-0.01,0.01-0.01,0.01-0.02
				c3.24-5.43,4.5-11.74,3.55-18.22l-4.83-32.89c-2.03-1.23-3.99-2.57-5.89-4c-0.55-0.41-1.09-0.84-1.62-1.27
				c-0.07-0.06-0.14-0.11-0.21-0.17c-0.51-0.41-1-0.83-1.5-1.25c-0.09-0.08-0.18-0.15-0.27-0.23c-0.47-0.41-0.93-0.83-1.39-1.25
				c-0.1-0.09-0.2-0.18-0.3-0.27c-0.54-0.5-1.07-1.01-1.6-1.53c-4.03-3.99-7.51-8.5-10.36-13.4c-2.84-4.88-5.07-10.19-6.63-15.79
				c-1.57-5.63-2.37-11.54-2.37-17.58c0-6.04,0.8-11.93,2.37-17.51c1.56-5.54,3.79-10.82,6.63-15.69c0.29-0.5,0.59-1,0.9-1.5
				c0.09-0.14,0.18-0.28,0.27-0.42c0.22-0.35,0.44-0.7,0.67-1.05c0.04-0.07,0.09-0.13,0.13-0.2c0.28-0.42,0.56-0.84,0.85-1.25
				c0.03-0.05,0.07-0.09,0.1-0.14c0.3-0.43,0.61-0.86,0.92-1.29c1.38-1.87,2.86-3.67,4.44-5.39l-14.4-98.1
				c-2.3-15.67-15.72-23.87-27.78-23.87c-7.47,0-14.38,2.94-19.64,8.31c-0.02,0.02-0.05,0.05-0.07,0.07
				c-0.41,0.42-0.81,0.85-1.2,1.3L310.5,277.07c-0.3,0.35-0.58,0.7-0.86,1.06c-0.17,0.21-0.33,0.42-0.49,0.64c0,0,0,0,0,0l0,0
				c-5.18,7.01-6.8,15.99-4.3,24.44C305.5,305.41,306.41,307.49,307.53,309.42z M483.55,123.09c0.78,0.23,1.35,0.88,1.46,1.68
				l32.37,220.53c0.1,0.7-0.16,1.4-0.69,1.86c-0.38,0.33-0.86,0.51-1.36,0.51c-0.19,0-0.39-0.03-0.58-0.08l-3.94-1.15v0l-24.18-7.05
				v0l-133.33-38.87l0,0l-16.72-4.87c-0.68-0.2-1.2-0.72-1.4-1.4c-0.2-0.67-0.04-1.4,0.42-1.94l145.8-168.6
				C481.94,123.11,482.78,122.86,483.55,123.09z"/>
			<polygon class="st2" points="485.98,334.89 510.26,341.97 510.26,341.97 512.83,342.72 495.07,221.71 495.07,221.71 
				485.25,154.81 463.27,180.14 			"/>
			<path class="st2" d="M290.94,305.31c-3.88-3.88-6.97-8.45-9.19-13.6c-0.68-1.59-1.25-3.21-1.73-4.87
				c-11,16.46-3.11,39.57,16.59,45.31l3.13,0.91c-1.78-6.82-1.27-13.89,1.34-20.23C297.33,310.81,293.93,308.3,290.94,305.31z"/>
		</g>
		<g>
			<path class="st2" d="M158.85,255.83c0,5.33-0.69,10.46-2.06,15.39c-1.37,4.93-3.32,9.53-5.86,13.81
				c-2.53,4.28-5.55,8.19-9.05,11.71c-3.5,3.53-7.4,6.56-11.71,9.09c-4.31,2.53-8.93,4.48-13.85,5.85
				c-4.93,1.37-10.05,2.06-15.39,2.06H66.05V197.92h34.89c5.33,0,10.46,0.69,15.39,2.06c4.93,1.37,9.54,3.32,13.85,5.85
				c4.31,2.53,8.21,5.56,11.71,9.09c3.5,3.53,6.52,7.43,9.05,11.71c2.53,4.28,4.48,8.88,5.86,13.81
				C158.16,245.37,158.85,250.5,158.85,255.83z M135.67,255.83c0-4.79-0.9-9.29-2.7-13.49c-1.81-4.2-4.28-7.87-7.43-11.02
				c-3.15-3.15-6.84-5.64-11.07-7.47c-4.23-1.83-8.74-2.75-13.53-2.75H89.39v69.46h11.55c4.79,0,9.3-0.9,13.53-2.71
				c4.23-1.8,7.92-4.28,11.07-7.43c3.15-3.15,5.63-6.84,7.43-11.07C134.77,265.13,135.67,260.62,135.67,255.83z"/>
			<path class="st2" d="M199.64,292.58c0.86,0.27,1.72,0.44,2.59,0.52c0.86,0.08,1.72,0.12,2.58,0.12c2.15,0,4.23-0.3,6.22-0.89
				c1.99-0.59,3.86-1.44,5.61-2.54c1.75-1.1,3.31-2.45,4.68-4.04c1.37-1.59,2.49-3.35,3.35-5.29l16.15,16.23
				c-2.05,2.91-4.4,5.52-7.07,7.83c-2.67,2.32-5.55,4.28-8.64,5.9c-3.1,1.62-6.35,2.84-9.77,3.68c-3.42,0.83-6.93,1.25-10.54,1.25
				c-6.09,0-11.81-1.13-17.16-3.39c-5.36-2.26-10.04-5.41-14.05-9.45c-4.01-4.04-7.18-8.84-9.49-14.42
				c-2.31-5.57-3.47-11.7-3.47-18.38c0-6.84,1.16-13.08,3.47-18.74c2.31-5.65,5.48-10.47,9.49-14.46c4.01-3.98,8.7-7.08,14.05-9.29
				c5.36-2.21,11.08-3.31,17.16-3.31c3.61,0,7.13,0.43,10.58,1.29c3.45,0.86,6.72,2.1,9.81,3.71c3.1,1.62,5.99,3.59,8.68,5.94
				c2.69,2.34,5.06,4.97,7.11,7.88L199.64,292.58z M210.95,247.1c-1.02-0.38-2.03-0.62-3.03-0.73c-1-0.11-2.03-0.16-3.11-0.16
				c-3.02,0-5.85,0.55-8.52,1.66s-4.98,2.68-6.95,4.72c-1.97,2.05-3.51,4.51-4.64,7.39s-1.7,6.13-1.7,9.73
				c0,0.81,0.04,1.72,0.12,2.75c0.08,1.02,0.22,2.06,0.41,3.11c0.19,1.05,0.42,2.06,0.69,3.03c0.27,0.97,0.62,1.83,1.05,2.59
				L210.95,247.1z"/>
			<path class="st2" d="M267.65,313.74h-22.21V192.83h22.21V313.74z"/>
			<path class="st2" d="M573.69,196.62c-5.49,0-10.78,0.72-15.87,2.14c-5.09,1.43-9.84,3.43-14.26,6.02
				c-4.42,2.59-8.45,5.7-12.11,9.33c-3.66,3.64-6.78,7.67-9.37,12.12c-2.58,4.44-4.59,9.19-6.02,14.25
				c-1.43,5.06-2.14,10.34-2.14,15.83c0,5.49,0.71,10.8,2.14,15.91c1.43,5.12,3.43,9.9,6.02,14.34c2.59,4.44,5.71,8.48,9.37,12.12
				c3.66,3.63,7.7,6.76,12.11,9.37c4.42,2.61,9.17,4.63,14.26,6.06c5.09,1.42,10.38,2.14,15.87,2.14c7.16,0,14.05-1.23,20.68-3.67
				c6.62-2.45,12.63-5.96,18.01-10.54v-45.71h-22.37v32.95c-2.48,1.24-5.09,2.21-7.83,2.91c-2.75,0.7-5.57,1.05-8.48,1.05
				c-5.06,0-9.81-0.97-14.26-2.91c-4.44-1.94-8.33-4.57-11.67-7.91c-3.34-3.34-5.98-7.24-7.91-11.71
				c-1.94-4.47-2.91-9.26-2.91-14.38c0-5.06,0.97-9.81,2.91-14.25c1.94-4.44,4.58-8.32,7.91-11.63c3.34-3.31,7.23-5.94,11.67-7.88
				c4.44-1.94,9.19-2.91,14.26-2.91c5.06,0,9.88,1.01,14.46,3.03c4.58,2.02,8.61,4.81,12.11,8.36l12.12-20.19
				c-5.38-4.57-11.39-8.09-18.01-10.54C587.75,197.85,580.85,196.62,573.69,196.62z"/>
			<path class="st2" d="M704.86,269.72c0,6.46-1.16,12.48-3.47,18.05c-2.32,5.57-5.46,10.39-9.45,14.46
				c-3.99,4.07-8.66,7.27-14.01,9.61c-5.36,2.34-11.11,3.51-17.25,3.51c-6.09,0-11.81-1.17-17.16-3.51
				c-5.36-2.34-10.04-5.54-14.05-9.61c-4.01-4.07-7.18-8.88-9.49-14.46c-2.31-5.57-3.47-11.59-3.47-18.05
				c0-6.57,1.16-12.65,3.47-18.25c2.31-5.6,5.48-10.43,9.49-14.5c4.01-4.07,8.7-7.26,14.05-9.57c5.36-2.31,11.08-3.47,17.16-3.47
				c6.14,0,11.89,1.09,17.25,3.27c5.36,2.18,10.03,5.28,14.01,9.29c3.98,4.01,7.13,8.83,9.45,14.46
				C703.7,256.57,704.86,262.83,704.86,269.72z M682.65,269.72c0-3.55-0.58-6.77-1.74-9.65c-1.16-2.88-2.73-5.36-4.72-7.43
				c-1.99-2.07-4.32-3.66-6.99-4.76c-2.67-1.1-5.51-1.66-8.52-1.66c-3.02,0-5.85,0.55-8.52,1.66s-4.98,2.69-6.95,4.76
				c-1.97,2.07-3.51,4.55-4.64,7.43c-1.13,2.88-1.7,6.1-1.7,9.65c0,3.34,0.56,6.44,1.7,9.29c1.13,2.86,2.68,5.33,4.64,7.43
				c1.97,2.1,4.28,3.76,6.95,4.97c2.67,1.21,5.5,1.82,8.52,1.82c3.01,0,5.86-0.57,8.52-1.7c2.66-1.13,4.99-2.72,6.99-4.77
				c1.99-2.04,3.57-4.52,4.72-7.43C682.07,276.42,682.65,273.22,682.65,269.72z"/>
			<path class="st2" d="M826.58,313.74h-22.21V192.83h22.21V313.74z"/>
			<path class="st2" d="M782.51,227.4h-8.32v3.72c-1.82-1.19-3.69-2.29-5.65-3.23c-2.58-1.24-5.25-2.21-7.99-2.91
				c-2.75-0.7-5.52-1.05-8.32-1.05c-6.09,0-11.81,1.12-17.16,3.35c-5.36,2.23-10.04,5.37-14.05,9.41c-4.01,4.04-7.18,8.87-9.49,14.5
				c-2.31,5.63-3.47,11.81-3.47,18.54c0,7.22,1.16,13.65,3.47,19.31c2.31,5.65,5.48,10.43,9.49,14.34c4.01,3.9,8.7,6.88,14.05,8.92
				c5.36,2.05,11.08,3.07,17.16,3.07c2.8,0,5.56-0.35,8.28-1.05c2.72-0.7,5.37-1.65,7.96-2.87c1.99-0.93,3.89-2.03,5.73-3.22v5.52
				h8.32h13.89V227.4H782.51z M772.45,278.48c-1.16,2.83-2.73,5.33-4.72,7.51c-1.99,2.18-4.32,3.93-6.99,5.25
				c-2.66,1.32-5.51,1.98-8.52,1.98c-3.02,0-5.85-0.51-8.52-1.54c-2.67-1.02-4.98-2.53-6.95-4.52c-1.97-1.99-3.51-4.46-4.64-7.39
				c-1.13-2.93-1.7-6.29-1.7-10.06c0-3.77,0.56-7.12,1.7-10.05c1.13-2.93,2.68-5.4,4.64-7.39c1.97-1.99,4.28-3.5,6.95-4.52
				c2.67-1.02,5.5-1.53,8.52-1.53c3.01,0,5.86,0.66,8.52,1.98c2.67,1.32,4.99,3.07,6.99,5.25c1.99,2.18,3.57,4.68,4.72,7.51
				c1.16,2.83,1.74,5.75,1.74,8.76C774.19,272.73,773.61,275.65,772.45,278.48z"/>
			<g>
				<path class="st2" d="M300.84,304.38c-2.69-9.1-1.22-18.72,3.87-26.52c-0.15-0.91-0.23-1.85-0.23-2.81v-25.68h24.37l19.06-21.97
					h-43.43v-34.57h-21.97v34.57h-10.74v21.97h10.74v25.68c0,5.33,1.01,10.34,3.03,15.02c2.02,4.68,4.79,8.79,8.32,12.32
					c2.6,2.6,5.51,4.78,8.73,6.56C301.9,307.48,301.31,305.96,300.84,304.38z"/>
			</g>
		</g>
	</g>
</g>
</svg>
